<svg aria-hidden="true" style="position: absolute; width: 0; height: 0; overflow: hidden;" version="1.1" xmlns="http://www.w3.org/2000/svg" xmlns:xlink="http://www.w3.org/1999/xlink">
<defs>
<symbol id="icon-android" viewBox="0 0 24 24">
<title>android</title>
<path d="M15 5.016v-1.031h-0.984v1.031h0.984zM9.984 5.016v-1.031h-0.984v1.031h0.984zM15.516 2.156c1.5 1.078 2.484 2.859 2.484 4.828h-12c0-1.969 0.938-3.75 2.438-4.828l-1.313-1.313c-0.188-0.188-0.188-0.516 0-0.703s0.516-0.188 0.703 0l1.5 1.5c0.797-0.422 1.734-0.656 2.672-0.656s1.828 0.234 2.625 0.656l1.5-1.5c0.188-0.188 0.516-0.188 0.703 0s0.188 0.516 0 0.703zM20.484 8.016c0.844 0 1.5 0.656 1.5 1.5v6.984c0 0.844-0.656 1.5-1.5 1.5s-1.5-0.656-1.5-1.5v-6.984c0-0.844 0.656-1.5 1.5-1.5zM3.516 8.016c0.844 0 1.5 0.656 1.5 1.5v6.984c0 0.844-0.656 1.5-1.5 1.5s-1.5-0.656-1.5-1.5v-6.984c0-0.844 0.656-1.5 1.5-1.5zM6 18v-9.984h12v9.984c0 0.563-0.422 0.984-0.984 0.984h-1.031v3.516c0 0.844-0.656 1.5-1.5 1.5s-1.5-0.656-1.5-1.5v-3.516h-1.969v3.516c0 0.844-0.656 1.5-1.5 1.5s-1.5-0.656-1.5-1.5v-3.516h-1.031c-0.563 0-0.984-0.422-0.984-0.984z"></path>
</symbol>
<symbol id="icon-ac_unit" viewBox="0 0 24 24">
<title>ac_unit</title>
<path d="M21.984 11.016v1.969h-4.172l3.234 3.234-1.406 1.453-4.641-4.688h-2.016v2.016l4.688 4.641-1.453 1.406-3.234-3.234v4.172h-1.969v-4.172l-3.234 3.234-1.453-1.406 4.688-4.641v-2.016h-2.016l-4.641 4.688-1.406-1.453 3.234-3.234h-4.172v-1.969h4.172l-3.234-3.234 1.406-1.453 4.641 4.688h2.016v-2.016l-4.688-4.641 1.453-1.406 3.234 3.234v-4.172h1.969v4.172l3.234-3.234 1.453 1.406-4.688 4.641v2.016h2.016l4.641-4.688 1.406 1.453-3.234 3.234h4.172z"></path>
</symbol>
<symbol id="icon-light-bulb" viewBox="0 0 20 20">
<title>light-bulb</title>
<path d="M7.186 19.172c0.789 0.51 1.701 0.855 2.814 0.828 1.111 0.027 2.025-0.318 2.814-0.828l-0.017-2.172h-5.594l-0.017 2.172zM12.697 16c0-4.357 4.63-5.848 4.283-10.188-0.218-2.738-2.073-5.81-6.98-5.81s-6.762 3.072-6.981 5.811c-0.347 4.339 4.284 5.83 4.284 10.187h5.394zM5 6c0.207-2.598 2.113-4 5-4s4.654 1.371 4.861 3.969c0.113 1.424-0.705 2.373-1.809 3.926-0.814 1.146-1.603 2.343-2.052 4.105h-2c-0.449-1.762-1.238-2.959-2.053-4.106-1.103-1.552-2.061-2.47-1.947-3.894z"></path>
</symbol>
</defs>
</svg>
